<svg width="23" height="23" viewBox="0 0 23 23" fill="none" xmlns="http://www.w3.org/2000/svg">
<path d="M11.5 21.8021C17.1897 21.8021 21.8021 17.1897 21.8021 11.5C21.8021 5.81032 17.1897 1.19792 11.5 1.19792C5.81034 1.19792 1.19794 5.81032 1.19794 11.5C1.19794 17.1897 5.81034 21.8021 11.5 21.8021Z" fill="#8D9BB5"/>
<path d="M11.5 12.2188C10.7892 12.2188 10.0944 12.008 9.50342 11.6131C8.91243 11.2182 8.45181 10.6569 8.17981 10.0003C7.90781 9.3436 7.83664 8.62102 7.9753 7.9239C8.11397 7.22678 8.45624 6.58643 8.95884 6.08384C9.46143 5.58124 10.1018 5.23897 10.7989 5.1003C11.496 4.96164 12.2186 5.03281 12.8753 5.30481C13.5319 5.57681 14.0932 6.03743 14.4881 6.62842C14.883 7.21941 15.0938 7.91423 15.0938 8.625C15.0925 9.57773 14.7135 10.4911 14.0398 11.1648C13.3661 11.8385 12.4527 12.2175 11.5 12.2188ZM11.5 6.46875C11.0735 6.46875 10.6566 6.59521 10.3021 6.83215C9.94746 7.06908 9.67109 7.40584 9.50789 7.79984C9.34469 8.19384 9.30198 8.62739 9.38518 9.04567C9.46838 9.46394 9.67375 9.84814 9.9753 10.1497C10.2769 10.4513 10.6611 10.6566 11.0793 10.7398C11.4976 10.823 11.9312 10.7803 12.3252 10.6171C12.7192 10.4539 13.0559 10.1775 13.2929 9.82295C13.5298 9.46836 13.6563 9.05147 13.6563 8.625C13.6555 8.05336 13.4281 7.50535 13.0239 7.10114C12.6197 6.69693 12.0716 6.46951 11.5 6.46875Z" fill="#E4ECF3"/>
<path d="M16.2917 17.0104C16.1408 17.0104 15.9937 16.9629 15.8712 16.8746C15.7488 16.7864 15.6572 16.6619 15.6093 16.5188L15.088 14.95C15.0087 14.7116 14.8563 14.5042 14.6524 14.3573C14.4486 14.2104 14.2036 14.1314 13.9524 14.1316H9.04763C8.79627 14.1315 8.55125 14.2105 8.34727 14.3574C8.14329 14.5043 7.99068 14.7116 7.91105 14.95L7.39067 16.515C7.36085 16.6046 7.31366 16.6874 7.25182 16.7588C7.18997 16.8302 7.11467 16.8886 7.03022 16.9309C6.94577 16.9732 6.85382 16.9984 6.75962 17.0051C6.66542 17.0119 6.57082 17 6.48121 16.9702C6.39161 16.9403 6.30875 16.8932 6.23738 16.8313C6.16601 16.7695 6.10752 16.6942 6.06525 16.6097C6.02298 16.5253 5.99776 16.4333 5.99103 16.3391C5.98429 16.2449 5.99618 16.1503 6.02601 16.0607L6.54734 14.4958C6.72219 13.971 7.05779 13.5146 7.50656 13.1912C7.95532 12.8678 8.49449 12.6939 9.04763 12.6941H13.9524C14.5054 12.6938 15.0445 12.8677 15.4931 13.1911C15.9418 13.5145 16.2772 13.971 16.4517 14.4958L16.974 16.0607C17.0341 16.2417 17.0199 16.4391 16.9345 16.6096C16.8492 16.7801 16.6997 16.9098 16.5188 16.9702C16.4456 16.9952 16.369 17.0087 16.2917 17.0104Z" fill="#E4ECF3"/>
</svg>
