<svg width="22" height="22" viewBox="0 0 22 22" fill="none" xmlns="http://www.w3.org/2000/svg">
<path fill-rule="evenodd" clip-rule="evenodd" d="M11 3.4375C6.82336 3.4375 3.43752 6.82335 3.43752 11C3.43752 12.4892 3.86728 13.876 4.60928 15.0454C4.72001 15.22 4.74634 15.4351 4.68098 15.6312L3.83705 18.1629L6.36884 17.319C6.56493 17.2537 6.78003 17.28 6.95456 17.3907C8.12404 18.1328 9.51078 18.5625 11 18.5625C12.2086 18.5625 13.3491 18.2795 14.3607 17.7767C14.7008 17.6078 15.1134 17.7465 15.2824 18.0865C15.4513 18.4265 15.3126 18.8391 14.9726 19.0081C13.7751 19.6032 12.4256 19.9375 11 19.9375C9.36082 19.9375 7.82307 19.4957 6.50128 18.7243L2.96742 19.9022C2.72038 19.9845 2.44801 19.9203 2.26388 19.7361C2.07975 19.552 2.01545 19.2796 2.0978 19.0326L3.27575 15.4987C2.5044 14.177 2.06252 12.6392 2.06252 11C2.06252 6.06395 6.06397 2.0625 11 2.0625C15.9361 2.0625 19.9375 6.06395 19.9375 11C19.9375 12.4256 19.6032 13.7751 19.0081 14.9726C18.8391 15.3126 18.4266 15.4513 18.0865 15.2823C17.7465 15.1134 17.6078 14.7008 17.7768 14.3607C18.2795 13.3491 18.5625 12.2086 18.5625 11C18.5625 6.82335 15.1767 3.4375 11 3.4375Z" fill="#FF8A00"/>
<path fill-rule="evenodd" clip-rule="evenodd" d="M5.90777 9.63618C6.13902 8.76993 6.59468 7.95112 7.27286 7.27295C7.95103 6.59478 8.76984 6.13911 9.63609 5.90786C10.0029 5.80993 10.3798 6.02793 10.4777 6.39478C10.5756 6.76163 10.3576 7.13841 9.99075 7.23634C9.35183 7.4069 8.74779 7.74256 8.24513 8.24523C7.74247 8.74788 7.40681 9.35192 7.23625 9.99083C7.13831 10.3577 6.76153 10.5757 6.39468 10.4778C6.02783 10.3799 5.80984 10.003 5.90777 9.63618ZM11.5221 6.39478C11.62 6.02793 11.9969 5.80993 12.3637 5.90786C13.23 6.13911 14.0487 6.59478 14.727 7.27295C15.4051 7.95112 15.8608 8.76993 16.092 9.63618C16.19 10.003 15.972 10.3799 15.6051 10.4778C15.2383 10.5757 14.8615 10.3577 14.7636 9.99083C14.593 9.35192 14.2574 8.74788 13.7547 8.24523C13.252 7.74256 12.648 7.4069 12.0091 7.23634C11.6422 7.13841 11.4242 6.76163 11.5221 6.39478ZM6.39468 11.5222C6.76153 11.4243 7.13831 11.6423 7.23625 12.0092C7.40681 12.6481 7.74247 13.2521 8.24513 13.7548C8.74779 14.2575 9.35183 14.5931 9.99075 14.7636C10.3576 14.8615 10.5756 15.2384 10.4777 15.6052C10.3798 15.9721 10.0029 16.1901 9.63609 16.0922C8.76984 15.8609 7.95103 15.4052 7.27286 14.7271C6.59468 14.0488 6.13902 13.2301 5.90777 12.3638C5.80984 11.997 6.02783 11.6201 6.39468 11.5222ZM11.5221 15.6052C11.4242 15.2384 11.6422 14.8615 12.0091 14.7636C12.648 14.5931 13.252 14.2575 13.7547 13.7548C14.2574 13.2521 14.593 12.6481 14.7636 12.0092C14.8615 11.6423 15.2383 11.4243 15.6051 11.5222C15.972 11.6201 16.19 11.997 16.092 12.3638C15.8608 13.2301 15.4051 14.0488 14.727 14.7271C14.0487 15.4052 13.23 15.8609 12.3637 16.0922C11.9969 16.1901 11.62 15.9721 11.5221 15.6052Z" fill="#FF8A00"/>
</svg>
