<svg width="13" height="13" viewBox="0 0 13 13" fill="none" xmlns="http://www.w3.org/2000/svg">
<g clip-path="url(#clip0_1_1552)">
<circle cx="6.5" cy="6.5" r="6.5" fill="white"/>
<path d="M6.5 0C2.91014 0 0 2.91014 0 6.5C0 10.0899 2.91014 13 6.5 13C10.0899 13 13 10.0899 13 6.5C13 2.91014 10.0899 0 6.5 0ZM8.97978 3.31018L8.08075 3.31058C7.37575 3.31058 7.23944 3.64559 7.23944 4.13713V5.22101H8.92059L8.9198 6.91866H7.23957V11.2752H5.48607V6.91866H4.02023V5.22101H5.48607V3.96902C5.48607 2.51608 6.37379 1.72478 7.6698 1.72478L8.97991 1.72677V3.31018H8.97978Z" fill="#3076FF"/>
</g>
<defs>
<clipPath id="clip0_1_1552">
<rect width="13" height="13" fill="white"/>
</clipPath>
</defs>
</svg>
