<svg width="15" height="16" viewBox="0 0 15 16" fill="none" xmlns="http://www.w3.org/2000/svg">
<g clip-path="url(#clip0_1_1595)">
<path d="M7.5 0.666656C3.35785 0.666656 0 4.02451 0 8.16666C0 12.3088 3.35785 15.6667 7.5 15.6667C11.6421 15.6667 15 12.3088 15 8.16666C15 4.02451 11.6421 0.666656 7.5 0.666656ZM10.3613 4.48609L9.32394 4.48655C8.51049 4.48655 8.3532 4.8731 8.3532 5.44026V6.6909H10.293L10.2921 8.64972H8.35335V13.6765H6.33008V8.64972H4.63872V6.6909H6.33008V5.2463C6.33008 3.56983 7.35437 2.65678 8.84977 2.65678L10.3614 2.65909V4.48609H10.3613Z" fill="#3076FF"/>
</g>
<defs>
<clipPath id="clip0_1_1595">
<rect width="15" height="15" fill="white" transform="translate(0 0.666656)"/>
</clipPath>
</defs>
</svg>
