<svg width="15" height="15" viewBox="0 0 15 15" fill="none" xmlns="http://www.w3.org/2000/svg">
<path d="M13.8609 13.6265L10.6109 10.3765H10.5759C11.5776 9.19536 12.0838 7.67264 11.9887 6.12685C11.8935 4.58105 11.2043 3.13194 10.0652 2.08264C8.9261 1.03333 7.42541 0.465122 5.87701 0.496868C4.32862 0.528613 2.85247 1.15786 1.75736 2.25297C0.66225 3.34808 0.033008 4.82422 0.00126206 6.37262C-0.0304839 7.92101 0.537725 9.42171 1.58703 10.5608C2.63633 11.6999 4.08545 12.3891 5.63124 12.4843C7.17703 12.5794 8.69976 12.0732 9.88089 11.0715C9.88089 11.0715 9.88089 11.0965 9.88089 11.1065L13.1309 14.3565C13.1774 14.4034 13.2327 14.4406 13.2936 14.4659C13.3545 14.4913 13.4199 14.5044 13.4859 14.5044C13.5519 14.5044 13.6172 14.4913 13.6782 14.4659C13.7391 14.4406 13.7944 14.4034 13.8409 14.3565C13.8921 14.3111 13.9335 14.2557 13.9625 14.1936C13.9915 14.1316 14.0074 14.0643 14.0092 13.9958C14.0111 13.9274 13.9989 13.8593 13.9734 13.7958C13.9479 13.7322 13.9096 13.6746 13.8609 13.6265ZM6.00589 11.4815C5.01698 11.4815 4.05028 11.1882 3.22804 10.6388C2.40579 10.0894 1.76493 9.30854 1.38649 8.39491C1.00805 7.48128 0.909034 6.47595 1.10196 5.50604C1.29489 4.53614 1.77109 3.64522 2.47035 2.94596C3.16962 2.2467 4.06053 1.77049 5.03044 1.57757C6.00034 1.38464 7.00567 1.48366 7.9193 1.86209C8.83293 2.24053 9.61383 2.8814 10.1632 3.70364C10.7126 4.52589 11.0059 5.49259 11.0059 6.48149C11.0059 7.1381 10.8766 7.78828 10.6253 8.39491C10.374 9.00154 10.0057 9.55273 9.54142 10.017C9.07713 10.4813 8.52593 10.8496 7.9193 11.1009C7.31268 11.3522 6.6625 11.4815 6.00589 11.4815Z" fill="#333333"/>
</svg>
