<svg width="17" height="18" viewBox="0 0 17 18" fill="none" xmlns="http://www.w3.org/2000/svg">
<path d="M8.50006 9.53125C9.67367 9.53125 10.6251 8.57986 10.6251 7.40625C10.6251 6.23264 9.67367 5.28125 8.50006 5.28125C7.32646 5.28125 6.37506 6.23264 6.37506 7.40625C6.37506 8.57986 7.32646 9.53125 8.50006 9.53125Z" stroke="#2D50C8" stroke-width="1.5" stroke-linecap="round" stroke-linejoin="round"/>
<path d="M13.8126 7.40625C13.8126 12.1875 8.50006 15.9062 8.50006 15.9062C8.50006 15.9062 3.18756 12.1875 3.18756 7.40625C3.18756 5.99729 3.74727 4.64603 4.74356 3.64975C5.73984 2.65346 7.0911 2.09375 8.50006 2.09375C9.90902 2.09375 11.2603 2.65346 12.2566 3.64975C13.2529 4.64603 13.8126 5.99729 13.8126 7.40625V7.40625Z" stroke="#2D50C8" stroke-width="1.5" stroke-linecap="round" stroke-linejoin="round"/>
</svg>
