<svg width="14" height="14" viewBox="0 0 14 14" fill="none" xmlns="http://www.w3.org/2000/svg">
<path fill-rule="evenodd" clip-rule="evenodd" d="M6.58772 3.28928C6.96616 3.70877 6.84617 4.18401 6.51156 4.63493C6.43223 4.74184 6.34079 4.84718 6.23034 4.96326C6.17733 5.01897 6.136 5.06087 6.04953 5.14742C5.85317 5.34397 5.68811 5.50913 5.55433 5.6429C5.48945 5.70777 5.93238 6.59286 6.79198 7.45331C7.65111 8.31329 8.53616 8.75652 8.60134 8.6913L9.09621 8.19616C9.36872 7.92338 9.51304 7.79176 9.71136 7.66166C10.1236 7.39118 10.5733 7.31768 10.9526 7.65681C12.1909 8.54259 12.8916 9.08615 13.2349 9.44285C13.9045 10.1386 13.8168 11.2096 13.2387 11.8205C13.0383 12.0324 12.7841 12.2867 12.484 12.5761C10.6682 14.3929 6.83602 13.2872 3.89908 10.3474C0.961483 7.40692 -0.143558 3.57439 1.66842 1.76143C1.99373 1.43102 2.10098 1.32382 2.4178 1.01165C3.00766 0.43044 4.12803 0.339435 4.8091 1.01222C5.16734 1.36611 5.73848 2.10096 6.58772 3.28928ZM10.0091 9.10941L9.51418 9.60465C8.67285 10.4464 7.24004 9.72889 5.87894 8.36646C4.51691 7.00309 3.80016 5.57081 4.64177 4.72926C4.77537 4.59567 4.94028 4.43067 5.13649 4.23427C5.21566 4.15502 5.25187 4.11832 5.29534 4.07264C5.35456 4.01039 5.40322 3.95573 5.44219 3.90736C4.68955 2.85895 4.17792 2.20385 3.90211 1.93139C3.75967 1.79068 3.44072 1.81659 3.32362 1.93196C3.01133 2.23968 2.90868 2.34228 2.58469 2.67133C1.4194 3.83726 2.31147 6.93114 4.81212 9.43425C7.312 11.9366 10.4054 12.8291 11.5796 11.6544C11.8751 11.3694 12.1159 11.1285 12.3012 10.9326C12.4352 10.791 12.4591 10.4989 12.305 10.3388C12.0484 10.0722 11.4202 9.58234 10.3354 8.80333C10.2563 8.86697 10.1591 8.95928 10.0091 9.10941Z" fill="#333333"/>
</svg>
