<svg width="23" height="24" viewBox="0 0 23 24" fill="none" xmlns="http://www.w3.org/2000/svg">
<g clip-path="url(#clip0_77_2343)">
<path d="M1.56579 21.75L17.376 15L1.56579 8.25L1.55826 13.5L12.8567 15L1.55826 16.5L1.56579 21.75Z" fill="#5F3712"/>
</g>
<path d="M18.2599 3.90108V2.28492C18.2599 1.025 17.2304 0 15.9651 0C14.6998 0 13.6704 1.025 13.6704 2.28492V3.90108H12.1032V10.8116H19.827V3.90108H18.2599ZM14.342 2.28492C14.342 1.39376 15.0701 0.668757 15.9651 0.668757C16.8601 0.668757 17.5882 1.39376 17.5882 2.28492V3.90108H14.342V2.28492ZM19.1554 10.1428H12.7748V4.56984H19.1554V10.1428Z" fill="#5F3712"/>
<path d="M15.6293 7.5355V8.72963H16.3009V7.53547C16.5654 7.41001 16.7487 7.14131 16.7487 6.83069C16.7487 6.40048 16.3972 6.05048 15.9651 6.05048C15.533 6.05048 15.1815 6.40048 15.1815 6.83069C15.1815 7.14133 15.3648 7.41006 15.6293 7.5355Z" fill="#5F3712"/>
<defs>
<clipPath id="clip0_77_2343">
<rect width="18.0774" height="18" fill="white" transform="translate(0.0518188 6)"/>
</clipPath>
</defs>
</svg>
