<svg width="15" height="15" viewBox="0 0 15 15" fill="none" xmlns="http://www.w3.org/2000/svg">
<path d="M0.00284281 14.4167L0.96051 10.8977C0.329482 9.81597 -0.00204753 8.58569 9.51451e-06 7.33336C9.51451e-06 3.42124 3.17122 0.250031 7.08334 0.250031C10.9955 0.250031 14.1667 3.42124 14.1667 7.33336C14.1667 11.2455 10.9955 14.4167 7.08334 14.4167C5.83156 14.4187 4.60181 14.0874 3.52043 13.4569L0.00284281 14.4167ZM4.52697 4.00986C4.4355 4.01554 4.34611 4.03964 4.26418 4.0807C4.18734 4.12421 4.11719 4.17861 4.05593 4.2422C3.97093 4.32224 3.92276 4.39166 3.87105 4.45895C3.60926 4.79965 3.46844 5.21787 3.47084 5.64753C3.47226 5.99461 3.56293 6.33249 3.70459 6.64841C3.9943 7.28732 4.47101 7.96378 5.10072 8.59066C5.2523 8.74153 5.40034 8.89311 5.55972 9.03407C6.34129 9.72219 7.27265 10.2184 8.27972 10.4833L8.68276 10.5449C8.8138 10.552 8.94484 10.5421 9.07659 10.5357C9.28289 10.5251 9.48432 10.4692 9.66664 10.3721C9.78422 10.3098 9.83947 10.2786 9.93793 10.2163C9.93793 10.2163 9.96839 10.1964 10.0265 10.1525C10.1221 10.0817 10.1809 10.0314 10.2602 9.94853C10.319 9.88761 10.37 9.81607 10.409 9.73461C10.4642 9.61916 10.5195 9.39886 10.5421 9.21541C10.5591 9.07516 10.5542 8.99866 10.5521 8.9512C10.5492 8.87541 10.4862 8.79678 10.4175 8.76349L10.0052 8.57861C10.0052 8.57861 9.38897 8.31016 9.01284 8.13874C8.97319 8.12145 8.93069 8.11161 8.88747 8.1097C8.839 8.10472 8.79004 8.11017 8.74385 8.12569C8.69767 8.14121 8.65534 8.16643 8.61972 8.19966V8.19824C8.61618 8.19824 8.56872 8.23861 8.05659 8.85911C8.0272 8.89861 7.98671 8.92846 7.94029 8.94486C7.89386 8.96126 7.84361 8.96347 7.79593 8.9512C7.74977 8.93886 7.70456 8.92323 7.66063 8.90445C7.5728 8.86761 7.54234 8.85345 7.48213 8.82724L7.47859 8.82582C7.07336 8.6489 6.69817 8.40992 6.36651 8.11749C6.27726 8.03957 6.19438 7.95457 6.10939 7.87241C5.83071 7.60553 5.58785 7.30362 5.38688 6.97424L5.34509 6.90695C5.31508 6.86173 5.29081 6.81295 5.27284 6.76174C5.24593 6.65761 5.31605 6.57403 5.31605 6.57403C5.31605 6.57403 5.48818 6.38561 5.56822 6.28361C5.63486 6.19884 5.69705 6.11065 5.75451 6.01941C5.83809 5.88482 5.8643 5.7467 5.82038 5.63974C5.62205 5.15524 5.41663 4.67286 5.20555 4.19403C5.16376 4.09911 5.0398 4.03111 4.92718 4.01766C4.88893 4.01341 4.85068 4.00916 4.81243 4.00632C4.7173 4.0016 4.62198 4.00254 4.52697 4.00916V4.00986Z" fill="#24A803"/>
</svg>
