<svg width="31" height="31" viewBox="0 0 31 31" fill="none" xmlns="http://www.w3.org/2000/svg">
<path d="M6.10352e-05 9C6.10352e-05 4.02944 4.0295 0 9.00006 0H21.4928C26.4634 0 30.4928 4.02944 30.4928 9V30.0156H9.00005C4.02949 30.0156 6.10352e-05 25.9861 6.10352e-05 21.0156V9Z" fill="url(#paint0_linear_77_2065)"/>
<path d="M14.6563 22.5625H21.9008C21.988 22.5637 22.0746 22.5473 22.1554 22.5145C22.2362 22.4816 22.3096 22.4329 22.3713 22.3713C22.4329 22.3096 22.4816 22.2362 22.5145 22.1554C22.5473 22.0746 22.5637 21.988 22.5625 21.9008V14.6562C22.5625 12.5594 21.7295 10.5484 20.2468 9.06569C18.7641 7.58298 16.7531 6.75 14.6563 6.75V6.75C13.618 6.75 12.5899 6.9545 11.6307 7.35183C10.6714 7.74915 9.79985 8.33152 9.06569 9.06569C8.33153 9.79985 7.74916 10.6714 7.35183 11.6307C6.9545 12.5899 6.75 13.618 6.75 14.6562V14.6562C6.75 15.6945 6.9545 16.7226 7.35183 17.6818C7.74916 18.6411 8.33153 19.5126 9.06569 20.2468C9.79985 20.981 10.6714 21.5633 11.6307 21.9607C12.5899 22.358 13.618 22.5625 14.6563 22.5625V22.5625Z" stroke="white" stroke-width="1.5" stroke-linecap="round" stroke-linejoin="round"/>
<path d="M14.6562 15.8594C14.1816 15.8594 13.7969 15.4746 13.7969 15C13.7969 14.5254 14.1816 14.1406 14.6562 14.1406C15.1309 14.1406 15.5156 14.5254 15.5156 15C15.5156 15.4746 15.1309 15.8594 14.6562 15.8594Z" fill="white"/>
<path d="M10.5312 15.8594C10.0566 15.8594 9.67188 15.4746 9.67188 15C9.67188 14.5254 10.0566 14.1406 10.5312 14.1406C11.0059 14.1406 11.3906 14.5254 11.3906 15C11.3906 15.4746 11.0059 15.8594 10.5312 15.8594Z" fill="white"/>
<path d="M18.7812 15.8594C18.3066 15.8594 17.9219 15.4746 17.9219 15C17.9219 14.5254 18.3066 14.1406 18.7812 14.1406C19.2559 14.1406 19.6406 14.5254 19.6406 15C19.6406 15.4746 19.2559 15.8594 18.7812 15.8594Z" fill="white"/>
<defs>
<linearGradient id="paint0_linear_77_2065" x1="-2.13676" y1="-1.06841" x2="27.7787" y2="29.9155" gradientUnits="userSpaceOnUse">
<stop stop-color="#E125FF"/>
<stop offset="1" stop-color="#C972FF"/>
</linearGradient>
</defs>
</svg>
