<svg width="23" height="23" viewBox="0 0 23 23" fill="none" xmlns="http://www.w3.org/2000/svg">
<path d="M11.5 16.1719C13.4848 16.1719 15.0938 14.5629 15.0938 12.5781C15.0938 10.5934 13.4848 8.98438 11.5 8.98438C9.51523 8.98438 7.90625 10.5934 7.90625 12.5781C7.90625 14.5629 9.51523 16.1719 11.5 16.1719Z" stroke="white" stroke-width="1.5" stroke-linecap="round" stroke-linejoin="round"/>
<path d="M17.6094 10.4219C18.4465 10.4205 19.2723 10.6147 20.0211 10.9891C20.7698 11.3635 21.4207 11.9076 21.9219 12.5781" stroke="white" stroke-width="1.5" stroke-linecap="round" stroke-linejoin="round"/>
<path d="M1.07812 12.5781C1.57927 11.9076 2.23017 11.3635 2.97891 10.9891C3.72765 10.6147 4.55351 10.4205 5.39062 10.4219" stroke="white" stroke-width="1.5" stroke-linecap="round" stroke-linejoin="round"/>
<path d="M6.325 19.4061C6.79832 18.4367 7.53437 17.6198 8.4493 17.0484C9.36424 16.477 10.4213 16.174 11.5 16.174C12.5787 16.174 13.6358 16.477 14.5507 17.0484C15.4656 17.6198 16.2017 18.4367 16.675 19.4061" stroke="white" stroke-width="1.5" stroke-linecap="round" stroke-linejoin="round"/>
<path d="M5.39063 10.4219C4.84496 10.4224 4.31039 10.2677 3.8494 9.97571C3.38841 9.68374 3.02003 9.2666 2.7873 8.77305C2.55458 8.27949 2.46712 7.7299 2.53514 7.18848C2.60316 6.64706 2.82386 6.13619 3.17145 5.71554C3.51903 5.29489 3.97915 4.98185 4.49804 4.81299C5.01693 4.64413 5.57316 4.62643 6.10174 4.76195C6.63031 4.89747 7.10941 5.18062 7.48304 5.57831C7.85667 5.97601 8.10941 6.47182 8.21172 7.00781" stroke="white" stroke-width="1.5" stroke-linecap="round" stroke-linejoin="round"/>
<path d="M14.7883 7.00781C14.8906 6.47182 15.1433 5.97601 15.517 5.57831C15.8906 5.18062 16.3697 4.89747 16.8983 4.76195C17.4268 4.62643 17.9831 4.64413 18.502 4.81299C19.0209 4.98185 19.481 5.29489 19.8286 5.71554C20.1761 6.13619 20.3968 6.64706 20.4649 7.18848C20.5329 7.7299 20.4454 8.27949 20.2127 8.77305C19.98 9.2666 19.6116 9.68374 19.1506 9.97571C18.6896 10.2677 18.1551 10.4224 17.6094 10.4219" stroke="white" stroke-width="1.5" stroke-linecap="round" stroke-linejoin="round"/>
</svg>
