<svg width="19" height="18" viewBox="0 0 19 18" fill="none" xmlns="http://www.w3.org/2000/svg">
<path d="M18.5 1.72383C18.5 0.771788 17.7282 0 16.7762 0H2.22383C1.27179 0 0.5 0.771788 0.5 1.72383V16.2762C0.5 17.2282 1.27179 18 2.22383 18H16.7762C17.7282 18 18.5 17.2282 18.5 16.2762L18.5 1.72383ZM2.24425 1.39683H16.8C16.9795 1.39683 17.1032 1.51854 17.1032 1.69804V9.89418H12.8839C12.4977 9.89418 12.1848 10.1938 12.1848 10.5799C12.1848 12.1027 10.9459 13.3349 9.42309 13.3349C7.93857 13.3349 6.72388 12.1543 6.66372 10.6843C6.66987 10.647 6.67305 10.6205 6.67305 10.5816C6.67305 10.1955 6.36002 9.89419 5.97388 9.89419H1.89683V1.69804C1.89683 1.51854 2.06476 1.39683 2.24425 1.39683ZM16.8 16.6032H2.24425C2.06476 16.6032 1.89683 16.4333 1.89683 16.2538V11.291H5.32183C5.6552 13.2487 7.36739 14.7519 9.42308 14.7519C11.4787 14.7519 13.1909 13.2487 13.5243 11.291H17.1032V16.2538C17.1032 16.4333 16.9795 16.6032 16.8 16.6032Z" fill="white"/>
<path d="M5.55439 4.64585H13.4549C13.841 4.64585 14.1541 4.33358 14.1541 3.94744C14.1541 3.56129 13.841 3.24902 13.4549 3.24902H5.55439C5.16824 3.24902 4.85522 3.56129 4.85522 3.94744C4.85522 4.33358 5.16824 4.64585 5.55439 4.64585Z" fill="white"/>
<path d="M5.55439 7.86243H13.4549C13.841 7.86243 14.1541 7.55016 14.1541 7.16402C14.1541 6.77788 13.841 6.46561 13.4549 6.46561H5.55439C5.16824 6.46561 4.85522 6.77788 4.85522 7.16402C4.85522 7.55016 5.16824 7.86243 5.55439 7.86243Z" fill="white"/>
</svg>
