<svg width="23" height="23" viewBox="0 0 23 23" fill="none" xmlns="http://www.w3.org/2000/svg">
<path d="M9.70312 14.375C12.6803 14.375 15.0938 11.9615 15.0938 8.98438C15.0938 6.00722 12.6803 3.59375 9.70312 3.59375C6.72597 3.59375 4.3125 6.00722 4.3125 8.98438C4.3125 11.9615 6.72597 14.375 9.70312 14.375Z" stroke="white" stroke-width="1.5" stroke-linecap="round" stroke-linejoin="round"/>
<path d="M1.99452 17.9691C2.93901 16.8434 4.11858 15.9382 5.45033 15.3172C6.78208 14.6961 8.23368 14.3743 9.70312 14.3743C11.1726 14.3743 12.6242 14.6961 13.9559 15.3172C15.2877 15.9382 16.4672 16.8434 17.4117 17.9691" stroke="white" stroke-width="1.5" stroke-linecap="round" stroke-linejoin="round"/>
<path d="M19.7656 13.6562C20.5595 13.6562 21.2031 13.0127 21.2031 12.2188C21.2031 11.4248 20.5595 10.7812 19.7656 10.7812C18.9717 10.7812 18.3281 11.4248 18.3281 12.2188C18.3281 13.0127 18.9717 13.6562 19.7656 13.6562Z" stroke="white" stroke-width="1.5" stroke-linecap="round" stroke-linejoin="round"/>
<path d="M19.7656 10.7812V9.70312" stroke="white" stroke-width="1.5" stroke-linecap="round" stroke-linejoin="round"/>
<path d="M18.5168 11.5L17.5914 10.9609" stroke="white" stroke-width="1.5" stroke-linecap="round" stroke-linejoin="round"/>
<path d="M18.5168 12.9375L17.5914 13.4766" stroke="white" stroke-width="1.5" stroke-linecap="round" stroke-linejoin="round"/>
<path d="M19.7656 13.6562V14.7344" stroke="white" stroke-width="1.5" stroke-linecap="round" stroke-linejoin="round"/>
<path d="M21.0145 12.9375L21.9398 13.4766" stroke="white" stroke-width="1.5" stroke-linecap="round" stroke-linejoin="round"/>
<path d="M21.0145 11.5L21.9398 10.9609" stroke="white" stroke-width="1.5" stroke-linecap="round" stroke-linejoin="round"/>
</svg>
